# xmcd CD database file
#
# Track frame offsets:
#	150
#	1848
#	34374
#	77276
#	105530
#	130950
#	151797
#	182093
#	222099
#	242623
#	262157
#
# Disc length: 3754 seconds
#
# Revision: 0
# Processed by: cddbd v1.5.2PL0 Copyright (c) Steve Scherf et al.
# Submitted via: CDex 1.70beta2
#
DISCID=840ea80b
DTITLE=Rare Medium - Live at The Cabooze, 22 June 2007
DYEAR=2007
DGENRE=Jazz
TTITLE0=Crowd Noise
TTITLE1=Ramblin
TTITLE2=Sidekick
TTITLE3=Squeaky
TTITLE4=Buster Brunei
TTITLE5=James Bond Theme
TTITLE6=Lesky
TTITLE7=Norma's Churchkey
TTITLE8=Crosstown Traffic
TTITLE9=Groovin in the Basement
TTITLE10=Root Down
EXTD=YEAR: 2007
EXTT0=
EXTT1=
EXTT2=
EXTT3=
EXTT4=
EXTT5=
EXTT6=
EXTT7=
EXTT8=
EXTT9=
EXTT10=
PLAYORDER=
